<?xml version="1.0" encoding="utf-8"?>
<!-- Generator: Adobe Illustrator 24.1.1, SVG Export Plug-In . SVG Version: 6.00 Build 0)  -->
<svg version="1.1" id="Layer_1" xmlns="http://www.w3.org/2000/svg" xmlns:xlink="http://www.w3.org/1999/xlink" x="0px" y="0px"
	 viewBox="0 0 1024 1024" style="enable-background:new 0 0 1024 1024;" xml:space="preserve">
<style type="text/css">
	.st0{fill:url(#SVGID_1_);stroke:#FFFFFF;stroke-miterlimit:10;}
</style>
<linearGradient id="SVGID_1_" gradientUnits="userSpaceOnUse" x1="885.3997" y1="709.4512" x2="107.5248" y2="426.3279">
	<stop  offset="0" style="stop-color:#FCA5A9"/>
	<stop  offset="1" style="stop-color:#CAABE1"/>
</linearGradient>
<path class="st0" d="M337.6,381.04v288.32h-60V550.22h-93.6v119.14h-60V381.04h60V495.1h93.6V381.04H337.6z M393.2,460.56h59.2
	v208.8h-59.2V460.56z M682,530.96v138.4h-59.2v-133.2c0-19.6-7.2-29.2-23.2-29.2c-15.6,0-28,9.2-36.8,27.6v134.8h-59.2v-208.8H554
	l1.6,25.2c16-20.8,35.2-30,60.8-30C659.6,455.76,682,481.36,682,530.96z M899.99,534.96v134.4h-50l-2-26
	c-14.4,20.4-35.2,30.8-62.8,30.8c-41.2,0-66-23.2-66-64.8c0-44,27.6-68.4,83.2-68.4h38.4v-6.8c0-21.6-8.4-32-29.6-32
	c-20.4,0-28.4,9.2-29.2,23.6h-57.2c3.2-46.4,31.2-70,88.8-70C872.79,455.76,899.99,480.56,899.99,534.96z M840.79,604.16v-24h-27.6
	c-26.8,0-35.6,9.2-35.6,24.4c0,15.2,8.8,23.2,25.6,23.2S832.39,619.76,840.79,604.16z M422.8,349.84c-6.9,0-12.86,2.86-16.57,7.51
	c-3.72,4.64-5.26,10.66-5.26,17.16v3.41h9.36v-3.41c0-4.92,1.22-8.8,3.22-11.31c2-2.51,4.72-4,9.26-4c4.56,0,7.26,1.4,9.26,3.9
	c2,2.5,3.22,6.42,3.22,11.41v3.41h9.36v-3.41c0-6.53-1.65-12.61-5.36-17.26C435.56,352.61,429.69,349.84,422.8,349.84z
	 M400.96,381.04c-5.17,0-9.36,4.19-9.36,9.36v31.2c0,5.17,4.19,9.36,9.36,9.36h43.68c5.17,0,9.36-4.19,9.36-9.36v-31.2
	c0-5.17-4.19-9.36-9.36-9.36H400.96z M422.8,396.64c3.45,0,6.24,2.79,6.24,6.24c0,2.3-1.26,4.28-3.12,5.36v7.12
	c0,1.72-1.4,3.12-3.12,3.12s-3.12-1.4-3.12-3.12v-7.12c-1.86-1.08-3.12-3.06-3.12-5.36C416.56,399.43,419.35,396.64,422.8,396.64z"
	/>
</svg>
